<svg xmlns="http://www.w3.org/2000/svg" xmlns:svg="http://www.w3.org/2000/svg" id="Layer_1" width="99.409" height="99.1" x="0" y="0" version="1.1" viewBox="-134 328.3 99.409 99.1" xml:space="preserve"><metadata id="metadata11"/><style id="style3" type="text/css">.st0{fill:#010101}</style><g id="XMLID_80_" transform="translate(-19.2,-19.300012)"><path style="fill:#010101" id="XMLID_81_" d="m -15.6,410.7 -36,35.9 c -0.1,0.1 -0.3,0.1 -0.6,0.1 l -49.1,-13.1 c -0.1,0 -0.3,-0.1 -0.4,-0.4 l -13.1,-49 c 0,-0.1 0,-0.4 0.1,-0.6 l 36,-35.9 c 0.1,-0.1 0.3,-0.1 0.6,-0.1 l 49.1,13.2 c 0.1,0 0.3,0.1 0.4,0.4 l 13.1,49 c 0.2,0.2 0.1,0.4 -0.1,0.5 z m -48.1,-39 -48.2,13 c -0.1,0 -0.1,0.1 0,0.3 l 35.3,35.3 c 0.1,0.1 0.1,0 0.3,0 l 13,-48.1 c -0.2,-0.5 -0.4,-0.5 -0.4,-0.5 z" class="st0"/></g></svg>